<?xml version="1.0" encoding="utf-8"?>
<!-- Generator: Adobe Illustrator 27.9.0, SVG Export Plug-In . SVG Version: 6.00 Build 0)  -->
<svg version="1.1" id="Laag_1" xmlns="http://www.w3.org/2000/svg" xmlns:xlink="http://www.w3.org/1999/xlink" x="0px" y="0px"
	 viewBox="0 0 48.15 48.15" style="enable-background:new 0 0 48.15 48.15;" xml:space="preserve">
<style type="text/css">
	.st0{fill:#FCFCFB;}
	.st1{fill:#030405;}
	.st2{fill:none;stroke:#000000;stroke-miterlimit:10;}
</style>
<g>
	<circle class="st0" cx="24.08" cy="24.08" r="24.08"/>
	<g>
		<rect x="19.06" y="28.26" class="st1" width="10.02" height="1.08"/>
		<rect x="21.57" y="24.75" class="st1" width="5" height="1.25"/>
		<path class="st1" d="M29.08,29.09c0.02-0.25,0.03-0.59-0.01-0.99c-0.03-0.32-0.11-1.07-0.46-1.72c-0.56-1.05-1.62-1.49-2.03-1.63
			c0,0.42,0,0.83,0,1.25c0.77,0.41,0.94,0.83,0.99,1.05c0.02,0.1,0.02,0.18,0,0.77c-0.01,0.38-0.03,0.69-0.04,0.92
			C28.04,28.85,28.56,28.97,29.08,29.09z"/>
		<path class="st1" d="M19.07,29.09c-0.02-0.25-0.03-0.59,0.01-0.99c0.03-0.32,0.11-1.07,0.46-1.72c0.56-1.05,1.62-1.49,2.03-1.63
			c0,0.42,0,0.83,0,1.25c-0.77,0.41-0.94,0.83-0.99,1.05c-0.02,0.1-0.02,0.18,0,0.77c0.01,0.38,0.03,0.69,0.04,0.92
			C20.11,28.85,19.59,28.97,19.07,29.09z"/>
		<circle class="st2" cx="24.08" cy="21.37" r="2.57"/>
	</g>
</g>
</svg>
